<svg xmlns="http://www.w3.org/2000/svg" xmlns:xlink="http://www.w3.org/1999/xlink" width="1920" height="778.29" viewBox="0 0 1920 778.29"><defs><linearGradient id="a" x1="0.5" y1="0.885" x2="0.5" y2="1" gradientUnits="objectBoundingBox"><stop offset="0" stop-color="#010003"/><stop offset="1" stop-opacity="0"/></linearGradient></defs><path d="M0,305.039,69.636,177.511l93.923,146.127L291.8,84.521l93.923,199.264L467,148.285l89.089,156.754L602.468,233.3,697.551,363.49l78.313-204.577,51.831,58.451L887.108,84.521l87.705,220.518,43.082-87.676,72.915,146.127,95.062-204.577,45.155,74.392,28.9-55.794,94,127.529L1450.12,73.894l55.452,114.244,32.253-39.853,52.639,135.5,63.217-106.274,65.213,106.274,104.681-180.666,87.705,180.666,8.72,568.4H0Z" transform="translate(0 -73.894)" fill="url(#a)"/></svg>