{
    "asset" : {
        "generator" : "Khronos glTF Blender I/O v1.7.33",
        "version" : "2.0"
    },
    "scene" : 0,
    "scenes" : [
        {
            "name" : "Scene",
            "nodes" : [
                0
            ]
        }
    ],
    "nodes" : [
        {
            "mesh" : 0,
            "name" : "Icosphere"
        }
    ],
    "materials" : [
        {
            "doubleSided" : true,
            "name" : "Material.002",
            "pbrMetallicRoughness" : {
                "baseColorFactor" : [
                    0.11051482707262039,
                    0.11051482707262039,
                    0.11051482707262039,
                    1
                ]
            }
        }
    ],
    "meshes" : [
        {
            "name" : "Icosphere.001",
            "primitives" : [
                {
                    "attributes" : {
                        "POSITION" : 0,
                        "NORMAL" : 1,
                        "TEXCOORD_0" : 2
                    },
                    "indices" : 3,
                    "material" : 0
                }
            ]
        }
    ],
    "accessors" : [
        {
            "bufferView" : 0,
            "componentType" : 5126,
            "count" : 7680,
            "max" : [
                2.024998426437378,
                2.0250000953674316,
                2.0249998569488525
            ],
            "min" : [
                -2.024998426437378,
                -2.0250000953674316,
                -2.0249998569488525
            ],
            "type" : "VEC3"
        },
        {
            "bufferView" : 1,
            "componentType" : 5126,
            "count" : 7680,
            "type" : "VEC3"
        },
        {
            "bufferView" : 2,
            "componentType" : 5126,
            "count" : 7680,
            "type" : "VEC2"
        },
        {
            "bufferView" : 3,
            "componentType" : 5123,
            "count" : 11520,
            "type" : "SCALAR"
        }
    ],
    "bufferViews" : [
        {
            "buffer" : 0,
            "byteLength" : 92160,
            "byteOffset" : 0
        },
        {
            "buffer" : 0,
            "byteLength" : 92160,
            "byteOffset" : 92160
        },
        {
            "buffer" : 0,
            "byteLength" : 61440,
            "byteOffset" : 184320
        },
        {
            "buffer" : 0,
            "byteLength" : 23040,
            "byteOffset" : 245760
        }
    ],
    "buffers" : [
        {
            "byteLength" : 268800,
            "uri" : "data:application/octet-stream;base64,"
        }
    ]
}
